<svg xmlns="http://www.w3.org/2000/svg" viewBox="0 0 576 512"><path fill="currentColor" d="M309.6 158.5L332.7 19.8C334.6 8.4 344.5 0 356.1 0c7.5 0 14.5 3.5 19 9.5L392 32h52.1c12.7 0 24.9 5.1 33.9 14.1L496 64h56c13.3 0 24 10.7 24 24v24c0 44.2-35.8 80-80 80H464 448 426.7l-1.2 4.7L309.6 158.5zM416 256.1L416 480c0 17.7-14.3 32-32 32H352c-17.7 0-32-14.3-32-32V364.8c-24 12.3-51.2 19.2-80 19.2s-56-6.9-80-19.2V480c0 17.7-14.3 32-32 32H96c-17.7 0-32-14.3-32-32V249.8c-1.5-1.1-3-2.2-4.5-3.4c-17-13.5-31.4-30-42.5-48.9c-4.5-7.6-7-16.4-7-25.9V96c0-17.7 14.3-32 32-32s32 14.3 32 32v40c0 11 9 20 20 20s20-9 20-20V96c0-17.7 14.3-32 32-32s32 14.3 32 32v76.5l190.4-31.5c-3 9.4-4.4 19.4-4.4 29.5c0 31.3 14 59.4 36 78.4c4.7 4.1 9.7 7.7 15 10.9c3.6 2.2 7.3 4.1 11 5.7zM480 88a24 24 0 1 0 0-48 24 24 0 1 0 0 48z"/></svg>
